<svg width="15" height="15" viewBox="0 0 15 15" fill="none" xmlns="http://www.w3.org/2000/svg">
<path d="M2.34387 6.11C2.41387 6.09938 2.48575 6.09375 2.55887 6.09375H12.4414C12.5145 6.09375 12.5864 6.09938 12.6564 6.11M2.34387 6.11C1.9781 6.16665 1.64941 6.36521 1.42909 6.66263C1.20878 6.96006 1.1146 7.33234 1.167 7.69875L1.70262 11.4488C1.75046 11.7838 1.91756 12.0904 2.17324 12.3122C2.42891 12.534 2.75602 12.6562 3.0945 12.6562H11.9064C12.2449 12.6562 12.572 12.534 12.8276 12.3122C13.0833 12.0904 13.2504 11.7838 13.2982 11.4488L13.8339 7.69875C13.8863 7.33234 13.7921 6.96006 13.5718 6.66263C13.3515 6.36521 13.0221 6.16665 12.6564 6.11M2.34387 6.11L2.3445 3.75C2.3445 3.37715 2.49257 3.01956 2.75616 2.75585C3.01975 2.49215 3.37727 2.34392 3.75012 2.34375H6.1745C6.42306 2.34397 6.66135 2.44288 6.837 2.61875L8.16325 3.94375C8.3389 4.11962 8.57719 4.21853 8.82575 4.21875H11.2501C11.6231 4.21875 11.9808 4.36691 12.2445 4.63063C12.5082 4.89435 12.6564 5.25204 12.6564 5.625V6.11" stroke="#737373" stroke-width="1.5" stroke-linecap="round" stroke-linejoin="round"/>
</svg>
