<svg width="1280" height="832" viewBox="0 0 1280 832" fill="none" xmlns="http://www.w3.org/2000/svg">
<mask id="mask0_461_7012" style="mask-type:alpha" maskUnits="userSpaceOnUse" x="0" y="0" width="1280" height="832">
<rect width="1280" height="832" fill="url(#paint0_linear_461_7012)"/>
</mask>
<g mask="url(#mask0_461_7012)">
<path d="M-100 670.022C-100 641.589 -91.3612 621.448 -74.0836 609.602C-56.806 597.757 -39.5284 591.832 -22.2508 591.832C-8.42848 591.832 5.3931 595.386 19.2154 602.494C36.4928 607.231 57.2259 615.528 81.4148 627.373C129.792 648.698 197.174 673.576 283.563 702.009C369.951 728.07 482.255 741.104 620.476 741.104C689.584 741.104 739.691 733.996 770.791 719.779C801.891 703.192 817.44 685.421 817.44 666.468C817.44 640.406 788.066 619.082 729.325 602.494C674.034 583.541 603.199 565.77 516.81 549.183C433.878 530.23 349.218 505.351 262.83 474.547C176.441 441.377 103.875 397.54 45.1318 343.046C-10.1567 286.18 -74.0836 216.282 -74.0836 126.246C-74.0836 19.6237 -44.8124 -91.7379 31.2093 -158.081C107.231 -224.424 223 -303.024 340.488 -333.826C462.326 -382.919 612.842 -401 737.24 -401C837.448 -401 980.915 -362.254 1021.53 -351.922C1062.14 -341.59 1172.27 -303.453 1227.71 -279.596C1283.15 -255.739 1377.47 -195.462 1412.03 -150.443C1446.59 -107.794 1461.89 -52.6425 1423.88 30.286L1387.6 112.03C1377.23 130.985 1361.68 140.463 1340.95 140.463C1327.13 140.463 1315.04 139.278 1304.67 136.909C1294.3 132.17 1282.21 128.616 1268.39 126.246C1099.06 76.4891 940.114 51.6105 791.524 51.6105C739.691 51.6105 703.408 57.5341 682.675 69.3809C665.4 81.2277 656.759 94.2596 656.759 108.476C656.759 136.909 684.401 160.603 739.691 179.558C798.433 196.145 869.273 213.916 952.206 232.869C1038.6 251.822 1124.98 276.701 1211.37 307.505C1297.76 338.309 1368.59 379.77 1423.88 431.898C1482.63 484.026 1512 552.737 1512 638.035C1512 777.828 1441.16 892.746 1299.49 982.782C1157.81 1072.82 969.089 1154 734.116 1154C578.618 1154 424.837 1125.59 303 1073.93C178.601 1031.28 84.8706 959.086 8.84887 890.375C-63.717 821.665 -100 748.212 -100 670.022Z" fill="white" fill-opacity="0.25"/>
</g>
<defs>
<linearGradient id="paint0_linear_461_7012" x1="1280" y1="128.5" x2="-0.000127304" y2="832" gradientUnits="userSpaceOnUse">
<stop offset="1" stop-color="#1E87F0"/>
</linearGradient>
</defs>
</svg>
