<svg width="215" height="215" viewBox="0 0 215 215" fill="none" xmlns="http://www.w3.org/2000/svg">
<g filter="url(#filter0_d_392_2612)">
<path d="M107.5 203C162.452 203 207 158.452 207 103.5C207 48.5477 162.452 4 107.5 4C52.5477 4 8 48.5477 8 103.5C8 158.452 52.5477 203 107.5 203Z" fill="#1E87F0"/>
</g>
<path d="M107.499 146.285C114.961 146.285 121.926 127.877 121.926 127.877C122.722 126.813 130.384 103.002 132.374 101.51C132.374 101.51 143.318 103.5 146.8 103.5C150.283 103.5 152.273 103.997 152.273 103.997C153.765 103.5 159.14 103.223 158.742 103.997C158.742 103.997 154.762 117.43 142.82 136.335C130.878 155.24 120.931 163.2 120.931 163.2C118.444 165.19 116.454 167.18 113.469 168.175C110.484 169.17 107.499 169.419 104.514 168.672C101.529 167.926 98.5437 166.682 94.5637 162.702C90.5837 158.722 69.1922 132.852 69.1922 132.852C68.5952 132.078 71.0821 130.365 72.6741 130.365H74.1666C80.1366 130.365 81.1312 131.5 83.6187 132.355C87.0017 133.517 92.5741 137.827 96.0566 140.315C99.5391 142.802 100.036 146.285 107.499 146.285Z" fill="white"/>
<path d="M84.9057 38.823C87.1353 38.823 88.7146 39.2869 89.6436 40.2147C90.5724 41.1426 91.037 42.0704 91.037 42.9981C91.037 43.7404 90.7584 44.4827 90.201 45.2249C89.8294 46.1527 89.1789 47.2661 88.2501 48.5651C86.5779 51.1629 84.627 54.7814 82.3974 59.4205C80.3537 64.0596 79.3317 70.0903 79.3317 77.5128C79.3317 81.2239 79.8891 83.9147 81.0039 85.5848C82.3046 87.2548 83.6981 88.0899 85.1844 88.0899C87.228 88.0899 88.9002 86.5125 90.201 83.358C91.6872 80.3889 93.0807 76.5851 94.3813 71.946C95.8677 67.4924 98.3449 60.4954 100.037 57.729C102.826 53.1709 102.525 52.2565 109.987 45.789C114.447 42.82 120.932 39.3214 127.897 38.8233C139.34 38.3264 144.585 42.5343 149.787 46.6166C154.99 50.699 158.988 56.4451 161.826 64.1955C164.664 71.946 165.515 77.628 165.018 83.9147C164.52 90.2014 164.215 91.559 162.225 98.524C157.25 109.967 159.24 105.489 156.752 109.966C154.337 115.346 153.372 119.079 149.842 120.934C146.498 122.79 141.574 122.698 135.071 120.656L128.661 118.708C127.175 118.151 125.41 122.521 125.41 121.408C125.41 120.666 126.716 116.492 126.902 115.936C127.273 115.379 127.711 113.195 127.897 112.453C130.616 103.001 133.4 94.6775 133.4 86.6981C133.4 83.9147 132.935 81.9663 132.006 80.8529C131.076 79.9253 130.054 79.4612 128.94 79.4612C126.71 79.4612 124.853 80.9456 123.366 83.9147C122.066 87.0692 120.672 90.8734 119.186 95.3269C117.699 99.9661 115.748 104.604 113.332 109.244C110.918 113.883 107.666 117.687 103.578 120.656C99.4908 123.811 94.1026 125.388 87.414 125.388C76.4519 125.388 67.7951 121.057 60.7349 113.449C53.6747 105.841 48.7949 96.5329 48.7949 83.9148C48.7949 75.5645 50.1138 68.0763 53.2722 61.2105C56.6166 54.5303 61.8142 48.3779 67.2022 44.2955C72.5903 40.3987 78.7743 38.823 84.9057 38.823Z" fill="white"/>
<defs>
<filter id="filter0_d_392_2612" x="0" y="0" width="215" height="215" filterUnits="userSpaceOnUse" color-interpolation-filters="sRGB">
<feFlood flood-opacity="0" result="BackgroundImageFix"/>
<feColorMatrix in="SourceAlpha" type="matrix" values="0 0 0 0 0 0 0 0 0 0 0 0 0 0 0 0 0 0 127 0" result="hardAlpha"/>
<feOffset dy="4"/>
<feGaussianBlur stdDeviation="4"/>
<feComposite in2="hardAlpha" operator="out"/>
<feColorMatrix type="matrix" values="0 0 0 0 0 0 0 0 0 0 0 0 0 0 0 0 0 0 0.08 0"/>
<feBlend mode="normal" in2="BackgroundImageFix" result="effect1_dropShadow_392_2612"/>
<feBlend mode="normal" in="SourceGraphic" in2="effect1_dropShadow_392_2612" result="shape"/>
</filter>
</defs>
</svg>
